<svg xmlns="http://www.w3.org/2000/svg" xmlns:xlink="http://www.w3.org/1999/xlink" viewBox="0 0 592 91.28"><defs><style>.cls-1{fill:url(#linear-gradient);}.cls-2{fill:url(#linear-gradient-2);}.cls-3{fill:url(#linear-gradient-3);}</style><linearGradient id="linear-gradient" x1="376" y1="35.13" x2="425" y2="35.13" gradientUnits="userSpaceOnUse"><stop offset="0" stop-color="#363c4b"/><stop offset="1" stop-color="#bd0d32"/></linearGradient><linearGradient id="linear-gradient-2" x1="0" y1="45.64" x2="592" y2="45.64" xlink:href="#linear-gradient"/><linearGradient id="linear-gradient-3" x1="167" y1="56.15" x2="216" y2="56.15" xlink:href="#linear-gradient"/></defs><title>Asset 5</title><g id="Layer_2" data-name="Layer 2"><g id="Layer_1-2" data-name="Layer 1"><path class="cls-1" d="M400.5,59.63A24.5,24.5,0,0,0,376,35.13a24.5,24.5,0,0,0,24.5-24.5A24.5,24.5,0,0,0,425,35.13,24.5,24.5,0,0,0,400.5,59.63Z"/><polygon class="cls-2" points="214 80.66 296 55.66 296 55.63 376.2 91.28 592 44.63 384.31 71.07 321.24 46.36 378 10.63 296 35.63 296 35.66 215.8 0 0 46.66 207.69 20.21 270.76 44.92 214 80.66"/><path class="cls-3" d="M191.5,31.65A24.49,24.49,0,0,0,216,56.15a24.5,24.5,0,0,0-24.5,24.5A24.5,24.5,0,0,0,167,56.15,24.49,24.49,0,0,0,191.5,31.65Z"/></g></g></svg>