<svg xmlns="http://www.w3.org/2000/svg" viewBox="0 0 190 192"><title>Asset 14</title><g id="Layer_2" data-name="Layer 2"><g id="Layer_1-2" data-name="Layer 1"><path d="M190,55.5A55.5,55.5,0,0,0,134.5,111,55.5,55.5,0,0,0,79,55.5,55.5,55.5,0,0,0,134.5,0,55.5,55.5,0,0,0,190,55.5Z"/><path d="M134,146.5A45.5,45.5,0,0,0,88.5,192,45.5,45.5,0,0,0,43,146.5,45.5,45.5,0,0,0,88.5,101,45.5,45.5,0,0,0,134,146.5Z"/><path d="M86,78c-23.75,0-43,19.7-43,44C43,97.7,23.75,78,0,78c23.75,0,43-19.7,43-44C43,58.3,62.25,78,86,78Z"/></g></g></svg>